<svg viewBox="0 0 394 434" version="1.1" xmlns="http://www.w3.org/2000/svg">
    <defs>
        <linearGradient id="faviconGrad" x1="0%" y1="0%" x2="100%" y2="100%">
            <stop offset="0%" stop-color="#3b82f6" />
            <stop offset="100%" stop-color="#4f46e5" />
        </linearGradient>
    </defs>
    <g transform="matrix(1,0,0,1,-817.502538,-2629.640935)" fill="url(#faviconGrad)" stroke="url(#faviconGrad)">
        <g transform="matrix(1,0,0,1,-384,711)">
            <path d="M1343.165,2352.098L1202.003,2352.098L1392.25,1933.665L1406.546,1933.665L1594.043,2352.098L1452.88,2352.098L1412.765,2250.061L1412.784,2250.061L1412.784,2249.99L1420.306,2255.427C1421.22,2256.088 1422.634,2256.973 1423.405,2257.758C1423.528,2256.409 1423.482,2256.064 1423.491,2253.711L1423.595,2240.564C1423.598,2239.583 1423.643,2238.583 1423.576,2237.605L1412.784,2226.812L1412.784,2135.324L1412.784,2135.324L1412.756,2135.007C1411.514,2125.395 1407.076,2115.472 1400.567,2108.371C1399.724,2107.451 1398.709,2106.587 1397.935,2105.625L1397.887,2105.626C1390.384,2112.737 1384.876,2124.829 1383.363,2134.837L1383.292,2135.324L1383.261,2135.324L1383.261,2226.812L1372.469,2237.605C1372.403,2238.583 1372.448,2239.583 1372.451,2240.564L1372.555,2253.711C1372.564,2255.064 1372.518,2256.409 1372.641,2257.758C1373.412,2256.973 1374.825,2256.088 1375.74,2255.427L1383.261,2249.99L1383.261,2250.061L1383.281,2250.061L1343.165,2352.098Z" stroke-width="1"/>
        </g>
        <g transform="matrix(0.157884,0,0,0.157884,560.794081,2322.786791)">
            <path d="M2072.41,1946.713C2111.633,1946.713 2147.739,1955.969 2180.73,1974.48C2213.721,1992.992 2239.655,2018.56 2258.533,2051.184C2277.411,2083.808 2286.85,2119.273 2286.85,2157.579C2286.85,2195.885 2277.503,2231.35 2258.808,2263.975C2240.113,2296.599 2214.454,2322.258 2181.83,2340.953C2149.205,2359.648 2113.74,2368.995 2075.434,2368.995C2037.128,2368.995 2001.48,2359.74 1968.489,2341.228C1935.498,2322.717 1909.655,2297.24 1890.961,2264.799C1872.266,2232.358 1862.918,2196.985 1862.918,2158.679C1862.918,2120.373 1872.266,2084.816 1890.961,2052.009C1909.655,2019.201 1935.223,1993.45 1967.664,1974.755C2000.105,1956.06 2035.021,1946.713 2072.41,1946.713Z" stroke-width="6.33"/>
        </g>
    </g>
</svg>
